# Blender v2.63 (sub 0) OBJ File: ''
# www.blender.org
v -1.183874 0.494457 0.089385
v -1.183874 -0.005543 -0.410615
v -1.183874 -0.505543 0.089385
v -1.183874 -0.005543 0.589385
v -0.683874 0.494457 -0.410615
v -0.183874 -0.005543 -0.410615
v -0.683874 -0.505543 -0.410615
v -0.183874 0.494457 0.089385
v -0.183874 -0.005543 0.589385
v -0.183874 -0.505543 0.089385
v -0.683874 0.494457 0.589385
v -0.683874 -0.505543 0.589385
v -1.183874 -0.005543 0.089385
v -0.683874 -0.005543 -0.410615
v -0.183874 -0.005543 0.089385
v -0.683874 -0.005543 0.589385
v -0.683874 -0.505543 0.089385
v -0.683874 0.494457 0.089385
v -1.183874 0.494457 -0.160615
v -1.183874 -0.255543 -0.410615
v -1.183874 -0.505543 0.339385
v -1.183874 0.244457 0.589385
v -0.433874 0.494457 -0.410615
v -0.183874 -0.255543 -0.410615
v -0.933874 -0.505543 -0.410615
v -0.183874 0.494457 0.339385
v -0.183874 -0.255543 0.589385
v -0.183874 -0.505543 -0.160615
v -0.933874 0.494457 0.589385
v -0.433874 -0.505543 0.589385
v -1.183874 0.494457 0.339385
v -1.183874 0.244457 -0.410615
v -1.183874 -0.505543 -0.160615
v -1.183874 -0.255543 0.589385
v -0.933874 0.494457 -0.410615
v -0.183874 0.244457 -0.410615
v -0.433874 -0.505543 -0.410615
v -0.183874 0.494457 -0.160615
v -0.183874 0.244457 0.589385
v -0.183874 -0.505543 0.339385
v -0.433874 0.494457 0.589385
v -0.933874 -0.505543 0.589385
v -1.183874 -0.255543 0.089385
v -1.183874 0.244457 0.089385
v -1.183874 -0.005543 0.339385
v -1.183874 -0.005543 -0.160615
v -0.683874 -0.255543 -0.410615
v -0.683874 0.244457 -0.410615
v -0.933874 -0.005543 -0.410615
v -0.433874 -0.005543 -0.410615
v -0.183874 -0.255543 0.089385
v -0.183874 0.244457 0.089385
v -0.183874 -0.005543 -0.160615
v -0.183874 -0.005543 0.339385
v -0.683874 -0.255543 0.589385
v -0.683874 0.244457 0.589385
v -0.433874 -0.005543 0.589385
v -0.933874 -0.005543 0.589385
v -0.433874 -0.505543 0.089385
v -0.933874 -0.505543 0.089385
v -0.683874 -0.505543 0.339385
v -0.683874 -0.505543 -0.160615
v -0.933874 0.494457 0.089385
v -0.433874 0.494457 0.089385
v -0.683874 0.494457 0.339385
v -0.683874 0.494457 -0.160615
v -1.183874 -0.255543 -0.160615
v -0.433874 -0.255543 -0.410615
v -0.183874 -0.255543 0.339385
v -0.933874 -0.255543 0.589385
v -0.433874 -0.505543 -0.160615
v -0.933874 0.494457 -0.160615
v -1.183874 -0.255543 0.339385
v -1.183874 0.244457 0.339385
v -1.183874 0.244457 -0.160615
v -0.933874 -0.255543 -0.410615
v -0.933874 0.244457 -0.410615
v -0.433874 0.244457 -0.410615
v -0.183874 -0.255543 -0.160615
v -0.183874 0.244457 -0.160615
v -0.183874 0.244457 0.339385
v -0.433874 -0.255543 0.589385
v -0.433874 0.244457 0.589385
v -0.933874 0.244457 0.589385
v -0.433874 -0.505543 0.339385
v -0.933874 -0.505543 0.339385
v -0.933874 -0.505543 -0.160615
v -0.933874 0.494457 0.339385
v -0.433874 0.494457 0.339385
v -0.433874 0.494457 -0.160615
vn -0.000000 1.000000 0.000000
vn -1.000000 0.000000 0.000000
vn 0.000000 0.000000 -1.000000
vn 1.000000 -0.000000 0.000000
vn 0.000000 -0.000000 1.000000
vn -0.000000 -1.000000 0.000000
vn -0.577350 0.577350 -0.577350
vn 0.577350 0.577350 0.577350
vn 0.577350 0.577350 -0.577350
vn 0.577350 -0.577350 -0.577350
vn -0.577350 -0.577350 -0.577350
vn -0.577350 -0.577350 0.577350
vn 0.577350 -0.577350 0.577350
vn -0.577350 0.577350 0.577350
s off
f 88//1 31//1 29//1
f 73//2 43//2 3//2
f 73//2 3//2 21//2
f 74//2 44//2 13//2
f 74//2 13//2 45//2
f 75//2 32//2 2//2
f 75//2 2//2 46//2
f 76//3 47//3 7//3
f 76//3 7//3 25//3
f 77//3 48//3 14//3
f 77//3 14//3 49//3
f 78//3 36//3 6//3
f 78//3 6//3 50//3
f 79//4 51//4 10//4
f 79//4 10//4 28//4
f 80//4 52//4 15//4
f 80//4 15//4 53//4
f 81//4 39//4 9//4
f 81//4 9//4 54//4
f 82//5 55//5 12//5
f 82//5 12//5 30//5
f 83//5 56//5 16//5
f 83//5 16//5 57//5
f 84//5 22//5 4//5
f 84//5 4//5 58//5
f 85//6 59//6 10//6
f 85//6 10//6 40//6
f 86//6 60//6 17//6
f 86//6 17//6 61//6
f 87//6 25//6 7//6
f 87//6 7//6 62//6
f 1//1 31//1 88//1
f 1//1 88//1 63//1
f 89//1 64//1 18//1
f 89//1 18//1 65//1
f 90//1 23//1 5//1
f 90//1 5//1 66//1
f 43//2 67//2 33//2
f 43//2 33//2 3//2
f 13//2 46//2 67//2
f 13//2 67//2 43//2
f 46//2 2//2 20//2
f 46//2 20//2 67//2
f 47//3 68//3 37//3
f 47//3 37//3 7//3
f 14//3 50//3 68//3
f 14//3 68//3 47//3
f 50//3 6//3 24//3
f 50//3 24//3 68//3
f 51//4 69//4 40//4
f 51//4 40//4 10//4
f 15//4 54//4 69//4
f 15//4 69//4 51//4
f 54//4 9//4 27//4
f 54//4 27//4 69//4
f 55//5 70//5 42//5
f 55//5 42//5 12//5
f 16//5 58//5 70//5
f 16//5 70//5 55//5
f 58//5 4//5 34//5
f 58//5 34//5 70//5
f 59//6 71//6 28//6
f 59//6 28//6 10//6
f 17//6 62//6 71//6
f 17//6 71//6 59//6
f 62//6 7//6 37//6
f 62//6 37//6 71//6
f 19//1 1//1 63//1
f 19//1 63//1 72//1
f 18//1 66//1 72//1
f 18//1 72//1 63//1
f 66//1 5//1 35//1
f 66//1 35//1 72//1
f 4//2 45//2 73//2
f 4//2 73//2 34//2
f 45//2 13//2 43//2
f 45//2 43//2 73//2
f 22//2 74//2 45//2
f 22//2 45//2 4//2
f 19//1 72//1 35//1
f 31//2 1//2 44//2
f 31//2 44//2 74//2
f 44//2 75//2 46//2
f 44//2 46//2 13//2
f 1//2 19//2 75//2
f 1//2 75//2 44//2
f 84//5 29//5 22//5
f 2//3 49//3 76//3
f 2//3 76//3 20//3
f 49//3 14//3 47//3
f 49//3 47//3 76//3
f 32//3 77//3 49//3
f 32//3 49//3 2//3
f 32//7 19//7 35//7
f 35//3 5//3 48//3
f 35//3 48//3 77//3
f 48//3 78//3 50//3
f 48//3 50//3 14//3
f 5//3 23//3 78//3
f 5//3 78//3 48//3
f 6//4 53//4 79//4
f 6//4 79//4 24//4
f 53//4 15//4 51//4
f 53//4 51//4 79//4
f 36//4 80//4 53//4
f 36//4 53//4 6//4
f 38//4 8//4 52//4
f 38//4 52//4 80//4
f 52//4 81//4 54//4
f 52//4 54//4 15//4
f 8//4 26//4 81//4
f 8//4 81//4 52//4
f 9//5 57//5 82//5
f 9//5 82//5 27//5
f 57//5 16//5 55//5
f 57//5 55//5 82//5
f 39//5 83//5 57//5
f 39//5 57//5 9//5
f 41//5 11//5 56//5
f 41//5 56//5 83//5
f 56//5 84//5 58//5
f 56//5 58//5 16//5
f 11//5 29//5 84//5
f 11//5 84//5 56//5
f 35//3 77//3 32//3
f 12//6 61//6 85//6
f 12//6 85//6 30//6
f 61//6 17//6 59//6
f 61//6 59//6 85//6
f 42//6 86//6 61//6
f 42//6 61//6 12//6
f 21//6 3//6 60//6
f 21//6 60//6 86//6
f 60//6 87//6 62//6
f 60//6 62//6 17//6
f 3//6 33//6 87//6
f 3//6 87//6 60//6
f 75//2 19//2 32//2
f 11//1 65//1 88//1
f 11//1 88//1 29//1
f 65//1 18//1 63//1
f 65//1 63//1 88//1
f 41//1 89//1 65//1
f 41//1 65//1 11//1
f 26//1 8//1 64//1
f 26//1 64//1 89//1
f 64//1 90//1 66//1
f 64//1 66//1 18//1
f 8//1 38//1 90//1
f 8//1 90//1 64//1
f 83//5 39//5 41//5
f 39//4 81//4 26//4
f 89//1 41//1 26//1
f 26//8 41//8 39//8
f 80//4 36//4 38//4
f 36//3 78//3 23//3
f 23//1 90//1 38//1
f 23//9 38//9 36//9
f 68//3 24//3 37//3
f 24//4 79//4 28//4
f 71//6 37//6 28//6
f 28//10 37//10 24//10
f 20//3 76//3 25//3
f 25//6 87//6 33//6
f 67//2 20//2 33//2
f 25//11 33//11 20//11
f 86//6 42//6 21//6
f 34//2 73//2 21//2
f 70//5 34//5 42//5
f 34//12 21//12 42//12
f 69//4 27//4 40//4
f 27//5 82//5 30//5
f 30//6 85//6 40//6
f 30//13 40//13 27//13
f 31//2 74//2 22//2
f 29//14 31//14 22//14
